<svg width="40" height="40" viewBox="0 0 40 40" fill="none" xmlns="http://www.w3.org/2000/svg">
<path d="M33.4431 21.1378C33.4219 17.8604 35.186 15.3867 38.7566 13.565C36.7588 11.1627 33.7407 9.84108 29.7556 9.5821C25.983 9.33206 21.8597 11.4307 20.3507 11.4307C18.7566 11.4307 15.101 9.6714 12.2317 9.6714C6.30181 9.75177 0 13.6453 0 21.5664C0 23.9061 0.510096 26.3232 1.53029 28.8177C2.89054 32.0951 7.80021 40.1323 12.9224 39.9983C15.6004 39.9448 17.492 38.3998 20.9777 38.3998C24.3571 38.3998 26.1105 39.9983 29.0967 39.9983C34.2614 39.9358 38.7035 32.6309 40 29.3446C33.0712 26.6031 33.4431 21.3074 33.4431 21.1378ZM27.4283 6.47439C30.3294 3.58101 30.0638 0.946601 29.9787 0C27.4176 0.125023 24.4527 1.46455 22.763 3.11664C20.9033 4.88482 19.8087 7.07272 20.0425 9.53745C22.8162 9.71605 25.3454 8.51941 27.4283 6.47439Z" fill="#495BB7"/>
</svg>
